# xmcd
#
# Track frame offsets:
#	150
#	18300
#	31334
#	45979
#	56296
#	78640
#	86494
#	103556
#	121667
#	148751
#	158075
#
# Disc length: 2360 seconds
#
# Revision: 0
# Processed by: cddbd v1.4PL0 Copyright (c) Steve Scherf et al.
# Submitted via: dBpowerAMP V4.0
#
DISCID=7b09360b
DTITLE=Appalachian Spitfire - Outta The Hills
DYEAR=1997
DGENRE=Bluegrass
TTITLE0=Reuben
TTITLE1=Native Vibes
TTITLE2=He Said If I Be Lifted Up
TTITLE3=Trilogy
TTITLE4=Pretty Bird
TTITLE5=Hartland
TTITLE6=Amazing Circle
TTITLE7=Old Joe Clark-Shortnin' Bread
TTITLE8=Dark As A Dungeon
TTITLE9=Hot Pockets
TTITLE10=Shady Grove
EXTD=
EXTT0=
EXTT1=
EXTT2=
EXTT3=
EXTT4=
EXTT5=
EXTT6=
EXTT7=
EXTT8=
EXTT9=
EXTT10=
PLAYORDER=
